<svg version="1.2" baseProfile="tiny" viewBox="0 0 55.922 29.0" xmlns:xlink="http://www.w3.org/1999/xlink" xmlns="http://www.w3.org/2000/svg">
<path style="fill:#ffffff;" d="M55.4472,0.1491C55.152,-0.0339,54.7818,-0.0499,54.4742,0.1061L31.3208,11.6989C30.515,10.7329,29.3182,10.1059,27.961,10.1059C26.6049,10.1059,25.407,10.7341,24.6018,11.7001L1.4473,0.1061C1.1402,-0.049,0.77,-0.0339,0.4748,0.1491C0.1801,0.332,0.0,0.6531,0.0,0.9999L0.0,28.0001C0.0,28.3469,0.1801,28.6679,0.4748,28.8509C0.6353,28.9501,0.817,29.0,0.9999,29.0C1.1531,29.0,1.3069,28.9649,1.4473,28.8939L24.6018,17.2999C25.4082,18.2659,26.6049,18.8941,27.961,18.8941C29.3171,18.8941,30.5161,18.2671,31.3208,17.3011L54.4742,28.8939C54.6151,28.9649,54.7689,29.0,54.9221,29.0C55.105,29.0,55.2867,28.9501,55.4472,28.8509C55.7419,28.6691,55.922,28.3469,55.922,28.0001L55.922,0.9999C55.922,0.6531,55.7419,0.332,55.4472,0.1491M1.9998,26.381L1.9998,2.619L23.6969,13.483C23.6192,13.811,23.5672,14.1479,23.5672,14.4991C23.5672,14.85,23.6192,15.1879,23.6969,15.5159L1.9998,26.381M53.9222,26.381L32.2262,15.517C32.3039,15.189,32.3559,14.8509,32.3559,14.4991C32.3559,14.1471,32.3039,13.8101,32.2262,13.4821L53.9222,2.619L53.9222,26.381Z"/>
</svg>